<?xml version="1.0" standalone="no"?>
<!DOCTYPE svg PUBLIC "-//W3C//DTD SVG 20010904//EN"
 "http://www.w3.org/TR/2001/REC-SVG-20010904/DTD/svg10.dtd">
<svg version="1.0" xmlns="http://www.w3.org/2000/svg"
 width="512.000000pt" height="512.000000pt" viewBox="0 0 512.000000 512.000000"
 preserveAspectRatio="xMidYMid meet">

<g transform="translate(0.000000,512.000000) scale(0.100000,-0.100000)"
fill="#000000" stroke="none">
<path d="M2175 4958 c-32 -11 -92 -52 -113 -78 -34 -41 -54 -97 -59 -165 l-6
-73 -58 -4 c-92 -7 -148 -59 -157 -146 l-4 -49 -197 -6 c-224 -6 -286 -20
-387 -85 -101 -66 -169 -154 -216 -278 l-23 -59 -3 -951 -3 -951 -57 -18
c-137 -43 -281 -132 -393 -244 -124 -124 -214 -279 -261 -448 -19 -67 -22
-103 -22 -258 0 -167 2 -186 27 -268 107 -349 366 -600 716 -695 l96 -26 1415
-4 c1025 -2 1433 0 1482 8 197 34 361 187 413 386 12 48 15 141 15 519 l0 460
262 600 263 600 0 110 c0 99 -3 116 -27 167 -55 117 -172 207 -296 227 -58 9
-140 3 -184 -14 -17 -7 -18 15 -18 382 0 429 -3 454 -63 567 -37 70 -122 159
-188 198 -98 58 -158 70 -371 76 l-196 5 -7 46 c-15 100 -78 151 -187 151
l-65 0 -7 70 c-3 38 -13 88 -22 110 -20 50 -99 122 -152 138 -51 16 -903 15
-947 0z m909 -148 c36 -13 56 -50 63 -114 l6 -56 -502 0 -501 0 0 43 c0 52 27
108 60 124 31 16 834 19 874 3z m-1304 -582 c0 -61 28 -124 68 -153 26 -20 45
-20 813 -23 l786 -2 33 22 c47 32 69 74 76 146 l7 62 188 0 c166 0 195 -2 244
-21 78 -29 164 -111 201 -191 l29 -63 3 -443 3 -443 -29 -37 c-39 -50 -50 -72
-143 -295 -45 -105 -177 -408 -295 -673 -312 -704 -307 -686 -280 -1076 10
-150 23 -269 32 -293 17 -49 56 -75 111 -75 36 0 58 15 244 163 205 164 270
226 329 315 l31 47 -3 -310 c-3 -298 -4 -312 -26 -359 -31 -67 -82 -127 -139
-164 -100 -64 -57 -62 -1248 -61 l-1080 0 29 22 c90 67 159 132 221 210 l69
87 617 0 618 0 20 26 c12 15 21 33 21 40 0 26 -23 62 -47 73 -17 8 -196 11
-588 11 -311 0 -565 2 -565 3 0 2 9 30 20 63 28 80 50 212 50 295 l0 68 536 3
536 3 19 24 c25 30 24 76 -1 101 -20 20 -33 20 -565 20 l-544 0 -11 43 c-17
65 -40 126 -76 200 -19 37 -34 70 -34 73 0 2 271 4 602 4 l602 0 23 22 c31 29
30 72 -2 103 l-24 25 -656 0 -655 0 -83 71 c-193 168 -405 249 -654 253 l-113
1 0 886 c0 596 4 905 11 944 20 108 82 203 166 252 83 48 106 52 311 53 l192
0 0 -52z m2628 -1658 c116 -51 212 -98 212 -103 0 -10 -478 -1117 -486 -1126
-2 -2 -105 41 -229 94 -176 76 -225 102 -222 114 5 17 475 1100 484 1114 3 5
10 6 17 4 6 -3 107 -46 224 -97z m-2998 -602 c208 -52 411 -203 520 -387 266
-448 65 -1033 -420 -1221 -409 -157 -870 23 -1064 415 -68 136 -80 194 -81
370 0 179 12 234 84 380 177 358 573 541 961 443z m2448 -676 c101 -44 186
-83 189 -86 10 -9 -61 -89 -124 -138 l-59 -46 -24 19 c-44 35 -119 69 -164 75
-43 6 -44 7 -50 52 -8 57 -8 151 0 190 5 27 9 30 28 22 11 -5 103 -44 204 -88z"/>
<path d="M1615 3771 c-66 -16 -117 -65 -135 -129 -13 -50 -13 -396 1 -447 16
-59 75 -111 141 -124 38 -8 358 -11 1078 -9 l1025 3 45 27 c27 15 54 42 68 66
21 38 22 50 22 264 l0 224 -29 45 c-17 27 -44 53 -67 65 -38 18 -74 19 -1079
21 -572 0 -1053 -2 -1070 -6z"/>
<path d="M2260 2743 c-33 -12 -50 -37 -50 -73 0 -75 -56 -70 817 -70 730 0
781 1 796 18 29 32 31 67 4 98 l-25 29 -764 2 c-419 1 -770 -1 -778 -4z"/>
<path d="M1512 2257 c-29 -31 -28 -72 3 -102 l24 -25 1020 0 c737 0 1027 3
1045 11 51 23 55 103 7 128 -13 8 -342 11 -1049 11 l-1029 0 -21 -23z"/>
<path d="M1075 1825 c-52 -10 -113 -31 -175 -61 -80 -39 -109 -61 -180 -133
-141 -142 -200 -286 -200 -485 0 -117 16 -191 64 -291 84 -177 223 -300 411
-362 70 -23 97 -27 210 -27 117 0 138 3 210 28 520 180 643 846 220 1189 -153
124 -366 177 -560 142z m165 -265 c11 -11 20 -33 20 -49 0 -24 8 -34 39 -52
47 -26 75 -62 91 -117 16 -51 6 -90 -25 -104 -30 -14 -75 12 -75 43 0 28 -26
75 -45 83 -86 33 -160 -56 -105 -127 15 -19 33 -27 72 -32 66 -9 97 -25 135
-69 84 -94 61 -237 -47 -298 -30 -17 -40 -29 -40 -48 0 -14 -7 -36 -16 -48
-30 -44 -94 -16 -94 42 0 25 -7 35 -37 51 -57 31 -95 86 -101 145 -5 57 8 80
46 80 33 0 62 -27 62 -56 0 -29 38 -72 70 -79 65 -14 122 70 83 123 -25 33
-38 40 -95 47 -130 17 -208 167 -148 285 19 38 66 80 103 93 12 4 17 17 17 41
0 25 7 39 22 50 30 21 44 20 68 -4z m-425 -365 c30 -30 31 -54 4 -89 -15 -19
-30 -26 -54 -26 -37 0 -75 37 -75 72 0 27 45 68 75 68 14 0 37 -11 50 -25z
m875 5 c28 -28 27 -84 -2 -104 -74 -52 -157 36 -96 101 27 29 71 30 98 3z"/>
</g>
</svg>
